<?xml version="1.0" encoding="UTF-8" standalone="no" ?>
<!DOCTYPE svg PUBLIC "-//W3C//DTD SVG 1.1//EN" "http://www.w3.org/Graphics/SVG/1.1/DTD/svg11.dtd">
<svg xmlns="http://www.w3.org/2000/svg" xmlns:xlink="http://www.w3.org/1999/xlink" version="1.1" width="50" height="50" viewBox="0 0 50 50" xml:space="preserve">
<desc>Created with Fabric.js 4.6.0</desc>
<defs>
</defs>
<g transform="matrix(0.58 0 0 0.58 25 25)" id="H691zWqIA1PzW0Km2MFOK"  >
<g style="" vector-effect="non-scaling-stroke"   >
		<g transform="matrix(1 0 0 1 0 0)" id="qnjHfrQPdcPgL51NgYFTm"  >
<path style="stroke: none; stroke-width: 1; stroke-dasharray: none; stroke-linecap: butt; stroke-dashoffset: 0; stroke-linejoin: miter; stroke-miterlimit: 4; fill: rgb(230,217,224); fill-rule: nonzero; opacity: 1;" vector-effect="non-scaling-stroke"  transform=" translate(-39.98, -40.03)" d="M 61.1 50.6 C 69.1 37.8 67.6 20.8 56.5 9.700000000000003 C 43.5 -3.1999999999999975 22.6 -3.1999999999999975 9.700000000000003 9.700000000000003 C -3.1999999999999957 22.6 -3.1999999999999975 43.6 9.700000000000003 56.5 C 20.800000000000004 67.6 37.900000000000006 69.1 50.6 61.1 L 67.3 78 C 70 80.7 74.5 80.7 77.2 78 L 77.9 77.3 C 80.60000000000001 74.6 80.60000000000001 70.1 77.9 67.39999999999999 C 77.9 67.3 61.1 50.6 61.1 50.6 z" stroke-linecap="round" />
</g>
		<g transform="matrix(1 0 0 1 -6.98 -6.99)" id="286YM-VkFMl-x5bPYAfP0"  >
<path style="stroke: none; stroke-width: 1; stroke-dasharray: none; stroke-linecap: butt; stroke-dashoffset: 0; stroke-linejoin: miter; stroke-miterlimit: 4; fill: rgb(80,70,92); fill-rule: nonzero; opacity: 1;" vector-effect="non-scaling-stroke"  transform=" translate(-33, -33.04)" d="M 16 16 C 6.6 25.4 6.6 40.6 16 50 C 25.4 59.4 40.6 59.4 50 50 C 59.4 40.6 59.4 25.4 50 16 C 40.7 6.7 25.4 6.7 16 16 z" stroke-linecap="round" />
</g>
		<g transform="matrix(1 0 0 1 2.37 -16.23)" id="yRgp5qTLekcKTy7w8Jcki"  >
<path style="stroke: none; stroke-width: 1; stroke-dasharray: none; stroke-linecap: butt; stroke-dashoffset: 0; stroke-linejoin: miter; stroke-miterlimit: 4; fill: rgb(230,217,224); fill-rule: nonzero; opacity: 1;" vector-effect="non-scaling-stroke"  transform=" translate(-42.35, -23.8)" d="M 51.1 32.6 L 46.6 32.6 C 46.6 25.400000000000002 40.800000000000004 19.6 33.6 19.6 L 33.6 15 C 43.2 15 51.1 22.9 51.1 32.6 z" stroke-linecap="round" />
</g>
</g>
</g>
</svg>